<?xml version="1.0" encoding="UTF-8"?>
<!DOCTYPE svg PUBLIC "-//W3C//DTD SVG 1.1//EN" "http://www.w3.org/Graphics/SVG/1.1/DTD/svg11.dtd">
<svg xmlns="http://www.w3.org/2000/svg" version="1.1" width="250px" height="32px" style="shape-rendering:geometricPrecision; text-rendering:geometricPrecision; image-rendering:optimizeQuality; fill-rule:evenodd; clip-rule:evenodd" xmlns:xlink="http://www.w3.org/1999/xlink">
<g><path style="opacity:1" fill="#fafafa" d="M -0.5,-0.5 C 82.8333,-0.5 166.167,-0.5 249.5,-0.5C 249.5,10.1667 249.5,20.8333 249.5,31.5C 166.167,31.5 82.8333,31.5 -0.5,31.5C -0.5,20.8333 -0.5,10.1667 -0.5,-0.5 Z"/></g>
<g><path style="opacity:1" fill="#171717" d="M 5.5,6.5 C 11.1764,6.33391 16.8431,6.50058 22.5,7C 23.3567,7.68909 24.0233,8.52242 24.5,9.5C 18.631,9.65082 12.631,9.65082 6.5,9.5C 6.5,10.8333 6.5,12.1667 6.5,13.5C 11.5111,13.3341 16.5111,13.5007 21.5,14C 24.9779,16.7065 25.3112,19.7065 22.5,23C 16.4724,23.8303 10.4724,23.6636 4.5,22.5C 3.12072,21.1374 3.28738,20.1374 5,19.5C 10.3104,21.3409 15.8104,22.0075 21.5,21.5C 21.5,19.8333 21.5,18.1667 21.5,16.5C 16.1563,16.666 10.8229,16.4994 5.5,16C 2.88813,12.8359 2.88813,9.66926 5.5,6.5 Z"/></g>
<g><path style="opacity:1" fill="#151515" d="M 40.5,15.5 C 40.0984,18.4766 39.0984,21.1433 37.5,23.5C 37.6641,20.8127 37.4974,18.146 37,15.5C 33.7391,12.7839 30.5724,9.95055 27.5,7C 28.8333,6.33333 30.1667,6.33333 31.5,7C 33.9066,9.28476 36.4066,11.4514 39,13.5C 41.1667,11.3333 43.3333,9.16667 45.5,7C 47.1667,6.33333 48.8333,6.33333 50.5,7C 47.0003,9.66863 43.667,12.502 40.5,15.5 Z"/></g>
<g><path style="opacity:1" fill="#131313" d="M 70.5,18.5 C 70.56,19.0431 70.8933,19.3764 71.5,19.5C 72.4922,15.2172 72.8256,10.8839 72.5,6.5C 74.45,11.7351 75.1167,17.4018 74.5,23.5C 73.448,23.6495 72.448,23.4828 71.5,23C 66.9788,18.9777 62.3121,15.1444 57.5,11.5C 56.5078,15.7828 56.1744,20.1161 56.5,24.5C 55.5,24.5 54.5,24.5 53.5,24.5C 53.5,18.5 53.5,12.5 53.5,6.5C 59.6743,9.65726 65.3409,13.6573 70.5,18.5 Z"/></g>
<g><path style="opacity:1" fill="#636363" d="M 72.5,6.5 C 72.8256,10.8839 72.4922,15.2172 71.5,19.5C 70.8933,19.3764 70.56,19.0431 70.5,18.5C 71.1667,14.5 71.8333,10.5 72.5,6.5 Z"/></g>
<g><path style="opacity:1" fill="#0c0c0c" d="M 95.5,6.5 C 93.4922,8.08262 91.1589,9.08262 88.5,9.5C 88.1384,14.4208 87.1384,19.0874 85.5,23.5C 85.5,18.8333 85.5,14.1667 85.5,9.5C 82.8333,9.5 80.1667,9.5 77.5,9.5C 77.5,8.5 77.5,7.5 77.5,6.5C 83.5,6.5 89.5,6.5 95.5,6.5 Z"/></g>
<g><path style="opacity:1" fill="#171717" d="M 108.5,6.5 C 110.017,6.51056 111.184,7.17723 112,8.5C 115.042,13.4188 118.209,18.2522 121.5,23C 117.948,21.0749 113.948,20.2416 109.5,20.5C 105.006,20.2388 101.006,21.0721 97.5,23C 101.549,17.7294 105.216,12.2294 108.5,6.5 Z"/></g>
<g><path style="opacity:1" fill="#171717" d="M 123.5,7.5 C 125.435,6.29099 127.435,6.45766 129.5,8C 131.333,9.83333 133.167,11.6667 135,13.5C 138.203,9.82489 142.036,7.65822 146.5,7C 143.312,9.43185 140.312,12.0985 137.5,15C 140.167,17.6667 142.833,20.3333 145.5,23C 144.167,23.6667 142.833,23.6667 141.5,23C 139.65,20.9824 137.65,19.1491 135.5,17.5C 132.736,18.7612 130.403,20.5946 128.5,23C 127.167,23.6667 125.833,23.6667 124.5,23C 127.016,20.3167 129.683,17.8167 132.5,15.5C 130.1,12.0969 127.1,9.4302 123.5,7.5 Z"/></g>
<g><path style="opacity:1" fill="#171717" d="M 156.5,6.5 C 162.842,6.33379 169.175,6.50046 175.5,7C 176.944,8.12605 177.61,9.62605 177.5,11.5C 176.313,14.0211 176.313,16.5211 177.5,19C 177.561,20.7106 176.894,22.044 175.5,23C 169.175,23.4995 162.842,23.6662 156.5,23.5C 156.5,17.8333 156.5,12.1667 156.5,6.5 Z"/></g>
<g><path style="opacity:1" fill="#1a1a1a" d="M 180.5,7.5 C 181.601,6.40168 182.934,6.23502 184.5,7C 186.449,9.62059 188.949,11.4539 192,12.5C 194.449,11.0557 196.615,9.22236 198.5,7C 199.833,6.33333 201.167,6.33333 202.5,7C 199.984,9.68325 197.317,12.1833 194.5,14.5C 193.516,17.4281 193.183,20.4281 193.5,23.5C 192.5,23.5 191.5,23.5 190.5,23.5C 190.664,20.8127 190.497,18.146 190,15.5C 186.667,12.9983 183.501,10.3316 180.5,7.5 Z"/></g>
<g><path style="opacity:1" fill="#0c0c0c" d="M 222.5,6.5 C 220.492,8.08262 218.159,9.08262 215.5,9.5C 215.138,14.4208 214.138,19.0874 212.5,23.5C 212.5,18.8333 212.5,14.1667 212.5,9.5C 209.833,9.5 207.167,9.5 204.5,9.5C 204.5,8.5 204.5,7.5 204.5,6.5C 210.5,6.5 216.5,6.5 222.5,6.5 Z"/></g>
<g><path style="opacity:1" fill="#000000" d="M 245.5,8.5 C 239.833,8.5 234.167,8.5 228.5,8.5C 228.5,10.5 228.5,12.5 228.5,14.5C 233.5,14.5 238.5,14.5 243.5,14.5C 239.285,16.4364 234.619,17.1031 229.5,16.5C 228.549,17.9187 228.216,19.5853 228.5,21.5C 234.167,21.5 239.833,21.5 245.5,21.5C 239.588,23.4563 233.255,24.1229 226.5,23.5C 226.5,17.8333 226.5,12.1667 226.5,6.5C 233.255,5.87705 239.588,6.54372 245.5,8.5 Z"/></g>
<g><path style="opacity:1" fill="#535353" d="M 95.5,6.5 C 96.404,7.20895 96.7373,8.20895 96.5,9.5C 93.8333,9.5 91.1667,9.5 88.5,9.5C 91.1589,9.08262 93.4922,8.08262 95.5,6.5 Z"/></g>
<g><path style="opacity:1" fill="#535353" d="M 222.5,6.5 C 223.404,7.20895 223.737,8.20895 223.5,9.5C 220.833,9.5 218.167,9.5 215.5,9.5C 218.159,9.08262 220.492,8.08262 222.5,6.5 Z"/></g>
<g><path style="opacity:1" fill="#474747" d="M 88.5,9.5 C 88.5,14.5 88.5,19.5 88.5,24.5C 87.209,24.7373 86.209,24.404 85.5,23.5C 87.1384,19.0874 88.1384,14.4208 88.5,9.5 Z"/></g>
<g><path style="opacity:1" fill="#fdfdfd" d="M 159.5,9.5 C 164.5,9.5 169.5,9.5 174.5,9.5C 174.5,10.8333 174.5,12.1667 174.5,13.5C 169.5,13.5 164.5,13.5 159.5,13.5C 159.5,12.1667 159.5,10.8333 159.5,9.5 Z"/></g>
<g><path style="opacity:1" fill="#474747" d="M 215.5,9.5 C 215.5,14.5 215.5,19.5 215.5,24.5C 214.209,24.7373 213.209,24.404 212.5,23.5C 214.138,19.0874 215.138,14.4208 215.5,9.5 Z"/></g>
<g><path style="opacity:1" fill="#e7e7e7" d="M 108.5,10.5 C 110.951,12.1226 112.951,14.2893 114.5,17C 111.446,17.8214 108.446,17.6548 105.5,16.5C 107.038,14.7567 108.038,12.7567 108.5,10.5 Z"/></g>
<g><path style="opacity:1" fill="#505050" d="M 245.5,8.5 C 240.36,9.48808 235.026,9.82141 229.5,9.5C 229.5,10.8333 229.5,12.1667 229.5,13.5C 234.363,13.1805 239.03,13.5139 243.5,14.5C 238.5,14.5 233.5,14.5 228.5,14.5C 228.5,12.5 228.5,10.5 228.5,8.5C 234.167,8.5 239.833,8.5 245.5,8.5 Z"/></g>
<g><path style="opacity:1" fill="#646464" d="M 40.5,15.5 C 40.5,18.5 40.5,21.5 40.5,24.5C 39.209,24.7373 38.209,24.404 37.5,23.5C 39.0984,21.1433 40.0984,18.4766 40.5,15.5 Z"/></g>
<g><path style="opacity:1" fill="#ededed" d="M 159.5,16.5 C 164.5,16.5 169.5,16.5 174.5,16.5C 174.714,18.1439 174.38,19.6439 173.5,21C 168.845,21.4992 164.179,21.6658 159.5,21.5C 159.5,19.8333 159.5,18.1667 159.5,16.5 Z"/></g>
<g><path style="opacity:1" fill="#aeaeae" d="M 229.5,16.5 C 229.5,17.8333 229.5,19.1667 229.5,20.5C 235.026,20.1786 240.36,20.5119 245.5,21.5C 239.833,21.5 234.167,21.5 228.5,21.5C 228.216,19.5853 228.549,17.9187 229.5,16.5 Z"/></g>
</svg>
